<svg xmlns="http://www.w3.org/2000/svg" viewBox="0 0 71.33 71.33"><defs><style>.cls-1{fill:#c03a2b;}.cls-2{fill:#fff;}</style></defs><title>air</title><g id="Layer_2" data-name="Layer 2"><g id="Layer_1-2" data-name="Layer 1"><path class="cls-1" d="M71.33,35.67A35.67,35.67,0,1,1,35.67,0,35.67,35.67,0,0,1,71.33,35.67Z"/><path class="cls-2" d="M51.18,26.16l-4.31,4.31,4.28,18.64a.87.87,0,0,1-.32.88L47.4,52.56a.8.8,0,0,1-.51.16.52.52,0,0,1-.19,0,.75.75,0,0,1-.56-.42L38.67,38.66,31.74,45.6l1.41,5.19a.86.86,0,0,1-.21.83l-2.57,2.57a.9.9,0,0,1-.62.25H29.7a.88.88,0,0,1-.64-.35L24,47.34l-6.75-5.06a.83.83,0,0,1-.35-.62.9.9,0,0,1,.24-.67l2.57-2.6a.89.89,0,0,1,.62-.24.44.44,0,0,1,.21,0l5.2,1.42,6.93-6.94-13.6-7.47a.85.85,0,0,1-.22-1.36l3.43-3.43a.9.9,0,0,1,.8-.22l17.81,4.26,4.29-4.28c2.57-2.57,6.85-4.29,8.57-2.57S53.75,23.59,51.18,26.16Z"/></g></g></svg>