<?xml version="1.0" encoding="utf-8"?>
<!-- Generator: Adobe Illustrator 23.0.3, SVG Export Plug-In . SVG Version: 6.00 Build 0)  -->
<svg version="1.1" id="Layer_1" xmlns="http://www.w3.org/2000/svg" xmlns:xlink="http://www.w3.org/1999/xlink" x="0px" y="0px"
	 viewBox="0 0 37.5 37.6" style="enable-background:new 0 0 37.5 37.6;" xml:space="preserve">
<style type="text/css">
	.st0{fill:#C03A2B;}
</style>
<title>air</title>
<g>
	<g id="Layer_1-2">
		<path class="st0" d="M34.3,9.3L30,13.6l4.3,18.6c0.1,0.3,0,0.7-0.3,0.9l-3.5,2.6c-0.1,0.1-0.3,0.2-0.5,0.2h-0.2
			c-0.2,0-0.5-0.2-0.6-0.4l-7.5-13.6l-6.9,6.9l1.4,5.2c0.1,0.3,0,0.6-0.2,0.8l-2.6,2.6c-0.2,0.2-0.4,0.2-0.6,0.2l0,0
			c-0.3,0-0.5-0.1-0.6-0.3l-5.1-6.8l-6.8-5.1C0.1,25.3,0,25,0,24.8c0-0.2,0.1-0.5,0.2-0.7l2.6-2.6c0.2-0.2,0.4-0.2,0.6-0.2
			c0.1,0,0.1,0,0.2,0l5.2,1.4l6.9-6.9L2.2,8.3C1.8,8.1,1.6,7.6,1.8,7.2C1.8,7.1,1.9,7,2,6.9l3.4-3.4c0.2-0.2,0.5-0.3,0.8-0.2L24,7.5
			l4.3-4.3c2.6-2.6,6.8-4.3,8.6-2.6S36.8,6.7,34.3,9.3z"/>
	</g>
</g>
</svg>
