<svg xmlns="http://www.w3.org/2000/svg" viewBox="0 0 56.18 31.42"><defs><style>.cls-1{fill:#c03a2b;}</style></defs><title>barge</title><g id="Layer_2" data-name="Layer 2"><g id="Layer_1-2" data-name="Layer 1"><path class="cls-1" d="M56.18,30.57a.86.86,0,0,1-.86.85H13.62a.85.85,0,0,1-.85-.85L0,17.87A.85.85,0,0,1,.85,17H55.32a.86.86,0,0,1,.86.85Z"/><rect class="cls-1" x="8.2" y="8.41" width="6.71" height="6.71" rx="0.67"/><rect class="cls-1" x="8.2" width="6.71" height="6.71" rx="0.67"/><rect class="cls-1" x="16.62" y="8.41" width="6.71" height="6.71" rx="0.67"/><rect class="cls-1" x="16.62" width="6.71" height="6.71" rx="0.67"/><rect class="cls-1" x="25.03" y="8.41" width="6.71" height="6.71" rx="0.67"/><rect class="cls-1" x="25.03" width="6.71" height="6.71" rx="0.67"/><path class="cls-1" d="M53.08,6.56H51.33V1.43a.85.85,0,0,0-.85-.86H41.77a.86.86,0,0,0-.86.86V6.56H39.16a.86.86,0,0,0-.85.86v6.85a.85.85,0,0,0,.85.85H53.08a.85.85,0,0,0,.85-.85V7.42A.86.86,0,0,0,53.08,6.56Z"/></g></g></svg>