<svg xmlns="http://www.w3.org/2000/svg" viewBox="0 0 195 195"><g><g><path d="M195,97.5A97.5,97.5,0,1,1,97.5,0,97.5,97.5,0,0,1,195,97.5Z" ></path><path d="M129.25,148.56a18.78,18.78,0,0,1-18.67-17.13H88a18.78,18.78,0,0,1-37.41,0l-3.73,0c-2.54,0-5.68.11-7.63-1.81a5.54,5.54,0,0,1-1.56-4.15A5.93,5.93,0,0,1,42,119.8v-20c0-.64,0-1.29,0-2-.09-4.33-.19-9.25,3.52-13L58.74,71.69a13.27,13.27,0,0,1,8.43-3.51h9.06V57a6,6,0,0,1,5.93-5.91h68.51a5.94,5.94,0,0,1,6,5.91v68.52a5.57,5.57,0,0,1-1.56,4.16c-1.82,1.78-4.67,1.85-7.07,1.81A18.82,18.82,0,0,1,129.25,148.56Zm-44.5-20.45h29.08v1.66a15.46,15.46,0,1,0,30.91,0v-1.66l2.8,0c1.9,0,4.24.08,5.2-.85a2.24,2.24,0,0,0,.56-1.79V57a2.65,2.65,0,0,0-2.63-2.59H82.16A2.66,2.66,0,0,0,79.56,57V71.51H67.17A10,10,0,0,0,61.09,74L47.84,87.26c-2.7,2.7-2.63,6.51-2.55,10.53,0,.68,0,1.36,0,2v23.08H43.66a2.67,2.67,0,0,0-2.67,2.6,2.23,2.23,0,0,0,.56,1.78c1,.94,3.34.89,5.24.86l7.05,0v1.66a15.46,15.46,0,1,0,30.91,0ZM129.25,140a10.37,10.37,0,0,1-10.2-10.26,10.24,10.24,0,0,1,20.47,0A10.4,10.4,0,0,1,129.25,140Zm0-17.14a6.91,6.91,0,1,0,6.95,6.88A7,7,0,0,0,129.25,122.89ZM69.34,140a10.4,10.4,0,0,1-10.26-10.26A10.24,10.24,0,1,1,69.34,140Zm0-17.14a6.91,6.91,0,1,0,6.89,6.88A6.89,6.89,0,0,0,69.34,122.89ZM79.56,97.22h-29V93.49a5.07,5.07,0,0,1,1.14-2.63l13-13a5,5,0,0,1,2.65-1.11H79.56ZM53.81,93.89H76.23V80.06H67.32c.07,0-.31.17-.43.25L54,93.22s-.14.38-.19.54Z" ></path><path d="M104.91,72c0,.74-.77.63-1.26.63a2.52,2.52,0,1,1-5,0H94.83a2.52,2.52,0,1,1-5,0h-.63c-.49,0-1.26.11-1.26-.63a.63.63,0,0,1,.63-.62V68.18a2.6,2.6,0,0,1,.45-2l1.94-2A1.76,1.76,0,0,1,92,63.77h1.58v-1.9a.63.63,0,0,1,.63-.62h10.08a.63.63,0,0,1,.63.62Zm-11.34-4.4V65H92a.43.43,0,0,0-.22.09L89.88,67a.6.6,0,0,0-.09.22v.3Zm-1.26,3.78a1.26,1.26,0,1,0,1.26,1.25A1.27,1.27,0,0,0,92.31,71.33Zm8.82,0a1.26,1.26,0,1,0,1.26,1.25A1.27,1.27,0,0,0,101.13,71.33Z" ></path><path d="M125.06,72c0,.74-.76.63-1.25.63a2.52,2.52,0,1,1-5,0H115a2.52,2.52,0,1,1-5,0h-.62c-.5,0-1.27.11-1.27-.63a.64.64,0,0,1,.64-.62V68.18a2.64,2.64,0,0,1,.44-2l2-2a1.74,1.74,0,0,1,1.07-.44h1.58v-1.9a.63.63,0,0,1,.63-.62h10.08a.62.62,0,0,1,.62.62Zm-11.33-4.4V65h-1.56a.43.43,0,0,0-.21.09L110,67a.62.62,0,0,0-.1.22v.3Zm-1.26,3.78a1.26,1.26,0,1,0,1.26,1.25A1.27,1.27,0,0,0,112.47,71.33Zm8.81,0a1.26,1.26,0,0,0,0,2.52,1.26,1.26,0,1,0,0-2.52Z" ></path><path d="M145.07,72c0,.74-.77.63-1.26.63a2.52,2.52,0,0,1-5,0H135a2.52,2.52,0,1,1-5,0h-.63c-.49,0-1.26.11-1.26-.63a.64.64,0,0,1,.63-.62V68.18a2.6,2.6,0,0,1,.45-2l1.94-2a1.79,1.79,0,0,1,1.07-.44h1.58v-1.9a.63.63,0,0,1,.63-.62h10.08a.63.63,0,0,1,.63.62Zm-11.34-4.4V65h-1.56a.43.43,0,0,0-.21.09L130,67a.6.6,0,0,0-.09.22v.3Zm-1.26,3.78a1.26,1.26,0,1,0,1.26,1.25A1.26,1.26,0,0,0,132.47,71.33Zm8.82,0a1.26,1.26,0,1,0,1.26,1.25A1.27,1.27,0,0,0,141.29,71.33Z" ></path><path d="M104.91,92.33c0,.73-.77.63-1.26.63a2.52,2.52,0,0,1-5,0H94.83a2.52,2.52,0,0,1-5,0h-.63c-.49,0-1.26.1-1.26-.63a.63.63,0,0,1,.63-.63V88.55a2.61,2.61,0,0,1,.45-2l1.94-1.94A1.72,1.72,0,0,1,92,84.14h1.58V82.25a.63.63,0,0,1,.63-.63h10.08a.63.63,0,0,1,.63.63ZM93.57,87.92V85.4H92a.54.54,0,0,0-.22.09l-1.92,1.92a.56.56,0,0,0-.09.21v.3ZM92.31,91.7A1.26,1.26,0,1,0,93.57,93,1.27,1.27,0,0,0,92.31,91.7Zm8.82,0A1.26,1.26,0,1,0,102.39,93,1.27,1.27,0,0,0,101.13,91.7Z" ></path><path d="M125.06,92.33c0,.73-.76.63-1.25.63a2.52,2.52,0,1,1-5,0H115a2.52,2.52,0,1,1-5,0h-.62c-.5,0-1.27.1-1.27-.63a.64.64,0,0,1,.64-.63V88.55a2.65,2.65,0,0,1,.44-2l2-1.94a1.7,1.7,0,0,1,1.07-.45h1.58V82.25a.63.63,0,0,1,.63-.63h10.08a.63.63,0,0,1,.62.63Zm-11.33-4.41V85.4h-1.56a.56.56,0,0,0-.21.09L110,87.41a.58.58,0,0,0-.1.21v.3Zm-1.26,3.78A1.26,1.26,0,1,0,113.73,93,1.28,1.28,0,0,0,112.47,91.7Zm8.81,0A1.26,1.26,0,1,0,122.55,93,1.27,1.27,0,0,0,121.28,91.7Z" ></path><path d="M145.07,92.33c0,.73-.77.63-1.26.63a2.52,2.52,0,0,1-5,0H135a2.52,2.52,0,0,1-5,0h-.63c-.49,0-1.26.1-1.26-.63a.64.64,0,0,1,.63-.63V88.55a2.61,2.61,0,0,1,.45-2l1.94-1.94a1.74,1.74,0,0,1,1.07-.45h1.58V82.25a.64.64,0,0,1,.63-.63h10.08a.63.63,0,0,1,.63.63Zm-11.34-4.41V85.4h-1.56a.56.56,0,0,0-.21.09L130,87.41a.56.56,0,0,0-.09.21v.3Zm-1.26,3.78a1.26,1.26,0,1,0,0,2.52,1.26,1.26,0,1,0,0-2.52Zm8.82,0A1.26,1.26,0,1,0,142.55,93,1.27,1.27,0,0,0,141.29,91.7Z" ></path><path d="M104.91,112.7c0,.73-.77.63-1.26.63a2.52,2.52,0,0,1-5,0H94.83a2.52,2.52,0,1,1-5,0h-.63c-.49,0-1.26.1-1.26-.63a.63.63,0,0,1,.63-.63v-3.15a2.61,2.61,0,0,1,.45-2L90.92,105a1.72,1.72,0,0,1,1.07-.45h1.58v-1.89a.63.63,0,0,1,.63-.63h10.08a.63.63,0,0,1,.63.63Zm-11.34-4.4v-2.53H92a.54.54,0,0,0-.22.09l-1.92,1.92a.56.56,0,0,0-.09.21v.31Zm-1.26,3.77a1.26,1.26,0,1,0,1.26,1.26A1.27,1.27,0,0,0,92.31,112.07Zm8.82,0a1.26,1.26,0,1,0,1.26,1.26A1.27,1.27,0,0,0,101.13,112.07Z" ></path><path d="M125.06,112.7c0,.73-.76.63-1.25.63a2.52,2.52,0,1,1-5,0H115a2.52,2.52,0,1,1-5,0h-.62c-.5,0-1.27.1-1.27-.63a.64.64,0,0,1,.64-.63v-3.15a2.65,2.65,0,0,1,.44-2l2-1.94a1.7,1.7,0,0,1,1.07-.45h1.58v-1.89a.63.63,0,0,1,.63-.63h10.08a.63.63,0,0,1,.62.63Zm-11.33-4.4v-2.53h-1.56a.56.56,0,0,0-.21.09L110,107.78a.58.58,0,0,0-.1.21v.31Zm-1.26,3.77a1.26,1.26,0,1,0,1.26,1.26A1.28,1.28,0,0,0,112.47,112.07Zm8.81,0a1.26,1.26,0,1,0,1.27,1.26A1.27,1.27,0,0,0,121.28,112.07Z" ></path><path d="M145.07,112.7c0,.73-.77.63-1.26.63a2.52,2.52,0,0,1-5,0H135a2.52,2.52,0,1,1-5,0h-.63c-.49,0-1.26.1-1.26-.63a.64.64,0,0,1,.63-.63v-3.15a2.61,2.61,0,0,1,.45-2l1.94-1.94a1.74,1.74,0,0,1,1.07-.45h1.58v-1.89a.64.64,0,0,1,.63-.63h10.08a.63.63,0,0,1,.63.63Zm-11.34-4.4v-2.53h-1.56a.56.56,0,0,0-.21.09L130,107.78a.56.56,0,0,0-.09.21v.31Zm-1.26,3.77a1.26,1.26,0,1,0,0,2.52,1.26,1.26,0,0,0,0-2.52Zm8.82,0a1.26,1.26,0,1,0,1.26,1.26A1.27,1.27,0,0,0,141.29,112.07Z" ></path></g></g></svg>
