<svg xmlns="http://www.w3.org/2000/svg" viewBox="0 0 118.96 97.5"><defs><style>.cls-1{fill:#c03a2b;}</style></defs><title>convoy</title><g id="Layer_2" data-name="Layer 2"><g id="Layer_1-2" data-name="Layer 1"><path class="cls-1" d="M91.58,97.5A18.79,18.79,0,0,1,72.91,80.37H50.33a18.78,18.78,0,0,1-37.41,0l-3.73,0c-2.53,0-5.67.11-7.63-1.81A5.59,5.59,0,0,1,0,74.42a6,6,0,0,1,4.33-5.69v-20c0-.64,0-1.29,0-2-.09-4.33-.19-9.25,3.52-12.95L21.07,20.63a13.22,13.22,0,0,1,8.44-3.51h9.06V5.91A6,6,0,0,1,44.49,0H113a6,6,0,0,1,6,5.91V74.42a5.63,5.63,0,0,1-1.56,4.17c-1.82,1.78-4.68,1.85-7.07,1.81A18.84,18.84,0,0,1,91.58,97.5ZM47.08,77.05H76.16v1.66a15.46,15.46,0,1,0,30.92,0V77.05l2.79,0c1.9,0,4.25.08,5.2-.85a2.28,2.28,0,0,0,.56-1.8V5.91A2.64,2.64,0,0,0,113,3.32H44.49a2.66,2.66,0,0,0-2.6,2.59V20.44H29.51A10,10,0,0,0,23.43,23L10.18,36.2c-2.71,2.7-2.63,6.51-2.55,10.53,0,.68,0,1.35,0,2V71.83H6a2.67,2.67,0,0,0-2.67,2.59,2.25,2.25,0,0,0,.57,1.79c.95.94,3.33.88,5.24.86l7,0v1.66a15.46,15.46,0,1,0,30.91,0ZM91.58,89a10.36,10.36,0,0,1-10.2-10.25,10.24,10.24,0,0,1,20.47,0A10.39,10.39,0,0,1,91.58,89Zm0-17.13a6.91,6.91,0,1,0,7,6.88A7,7,0,0,0,91.58,71.83ZM31.67,89A10.39,10.39,0,0,1,21.41,78.71,10.24,10.24,0,1,1,31.67,89Zm0-17.13a6.91,6.91,0,1,0,6.9,6.88A6.9,6.9,0,0,0,31.67,71.83ZM41.89,46.15h-29V42.43A5.07,5.07,0,0,1,14,39.8l13-13a5,5,0,0,1,2.65-1.11H41.89ZM16.15,42.83H38.57V29H29.66c.06,0-.32.18-.44.25L16.33,42.16s-.14.38-.18.54Z"/><path class="cls-1" d="M67.24,20.89c0,.73-.76.63-1.25.63a2.53,2.53,0,0,1-5,0H57.16a2.52,2.52,0,1,1-5,0H51.5c-.5,0-1.27.1-1.27-.63a.63.63,0,0,1,.64-.62V17.12c0-.71-.11-1.48.44-2l1.94-1.95a1.73,1.73,0,0,1,1.08-.44H55.9v-1.9a.63.63,0,0,1,.63-.62H66.61a.63.63,0,0,1,.63.62ZM55.9,16.49V14H54.35a.54.54,0,0,0-.22.1L52.21,16a.6.6,0,0,0-.09.22v.3Zm-1.25,3.78a1.27,1.27,0,0,0-1.27,1.25,1.28,1.28,0,0,0,1.27,1.27,1.27,1.27,0,0,0,1.25-1.27A1.25,1.25,0,0,0,54.65,20.27Zm8.81,0a1.26,1.26,0,0,0-1.26,1.25,1.27,1.27,0,1,0,1.26-1.25Z"/><path class="cls-1" d="M87.4,20.89c0,.73-.77.63-1.26.63a2.52,2.52,0,1,1-5,0H77.32a2.52,2.52,0,1,1-5,0h-.63c-.49,0-1.26.1-1.26-.63a.63.63,0,0,1,.63-.62V17.12c0-.71-.1-1.48.45-2l1.94-1.95a1.71,1.71,0,0,1,1.07-.44h1.58v-1.9a.63.63,0,0,1,.63-.62H86.77a.63.63,0,0,1,.63.62Zm-11.34-4.4V14H74.51a.44.44,0,0,0-.22.1L72.37,16a.6.6,0,0,0-.09.22v.3ZM74.8,20.27a1.26,1.26,0,0,0-1.26,1.25,1.26,1.26,0,1,0,2.52,0A1.26,1.26,0,0,0,74.8,20.27Zm8.82,0a1.26,1.26,0,0,0-1.26,1.25,1.27,1.27,0,1,0,1.26-1.25Z"/><path class="cls-1" d="M107.4,20.89c0,.73-.76.63-1.26.63a2.52,2.52,0,1,1-5,0H97.32a2.52,2.52,0,1,1-5,0h-.63c-.49,0-1.27.1-1.27-.63a.63.63,0,0,1,.64-.62V17.12a2.63,2.63,0,0,1,.44-2l2-1.95a1.69,1.69,0,0,1,1.07-.44h1.57v-1.9a.63.63,0,0,1,.64-.62h10.08a.62.62,0,0,1,.62.62Zm-11.34-4.4V14H94.51a.49.49,0,0,0-.22.1L92.37,16a.83.83,0,0,0-.08.22v.3Zm-1.25,3.78a1.26,1.26,0,0,0-1.26,1.25,1.26,1.26,0,1,0,2.51,0A1.25,1.25,0,0,0,94.81,20.27Zm8.81,0a1.25,1.25,0,0,0-1.25,1.25,1.27,1.27,0,0,0,1.25,1.27,1.28,1.28,0,0,0,1.27-1.27A1.27,1.27,0,0,0,103.62,20.27Z"/><path class="cls-1" d="M67.24,41.27c0,.73-.76.63-1.25.63a2.53,2.53,0,0,1-5,0H57.16a2.52,2.52,0,0,1-5,0H51.5c-.5,0-1.27.1-1.27-.63a.64.64,0,0,1,.64-.63V37.49a2.61,2.61,0,0,1,.44-2l1.94-1.94a1.75,1.75,0,0,1,1.08-.45H55.9V31.19a.64.64,0,0,1,.63-.63H66.61a.63.63,0,0,1,.63.63ZM55.9,36.86V34.34H54.35a.68.68,0,0,0-.22.09l-1.92,1.91a.6.6,0,0,0-.09.22v.3Zm-1.25,3.78a1.26,1.26,0,1,0,0,2.52,1.26,1.26,0,0,0,0-2.52Zm8.81,0a1.26,1.26,0,1,0,1.27,1.26A1.27,1.27,0,0,0,63.46,40.64Z"/><path class="cls-1" d="M87.4,41.27c0,.73-.77.63-1.26.63a2.52,2.52,0,0,1-5,0H77.32a2.52,2.52,0,0,1-5,0h-.63c-.49,0-1.26.1-1.26-.63a.63.63,0,0,1,.63-.63V37.49a2.61,2.61,0,0,1,.45-2l1.94-1.94a1.72,1.72,0,0,1,1.07-.45h1.58V31.19a.64.64,0,0,1,.63-.63H86.77a.63.63,0,0,1,.63.63ZM76.06,36.86V34.34H74.51a.54.54,0,0,0-.22.09l-1.92,1.91a.6.6,0,0,0-.09.22v.3ZM74.8,40.64a1.26,1.26,0,1,0,1.26,1.26A1.27,1.27,0,0,0,74.8,40.64Zm8.82,0a1.26,1.26,0,1,0,1.27,1.26A1.27,1.27,0,0,0,83.62,40.64Z"/><path class="cls-1" d="M107.4,41.27c0,.73-.76.63-1.26.63a2.52,2.52,0,0,1-5,0H97.32a2.52,2.52,0,0,1-5,0h-.63c-.49,0-1.27.1-1.27-.63a.64.64,0,0,1,.64-.63V37.49a2.65,2.65,0,0,1,.44-2l2-1.94a1.7,1.7,0,0,1,1.07-.45h1.57V31.19a.64.64,0,0,1,.64-.63h10.08a.63.63,0,0,1,.62.63ZM96.06,36.86V34.34H94.51a.6.6,0,0,0-.22.09l-1.92,1.91a.83.83,0,0,0-.08.22v.3Zm-1.25,3.78a1.26,1.26,0,1,0,1.25,1.26A1.27,1.27,0,0,0,94.81,40.64Zm8.81,0a1.26,1.26,0,0,0,0,2.52,1.26,1.26,0,1,0,0-2.52Z"/><path class="cls-1" d="M67.24,61.64c0,.73-.76.63-1.25.63a2.53,2.53,0,0,1-5,0H57.16a2.52,2.52,0,1,1-5,0H51.5c-.5,0-1.27.1-1.27-.63a.64.64,0,0,1,.64-.63V57.86a2.61,2.61,0,0,1,.44-2l1.94-1.94a1.75,1.75,0,0,1,1.08-.45H55.9V51.56a.64.64,0,0,1,.63-.63H66.61a.63.63,0,0,1,.63.63ZM55.9,57.23V54.71H54.35a.68.68,0,0,0-.22.09l-1.92,1.92a.56.56,0,0,0-.09.21v.3ZM54.65,61a1.26,1.26,0,1,0,0,2.52,1.26,1.26,0,0,0,0-2.52Zm8.81,0a1.26,1.26,0,1,0,1.27,1.26A1.27,1.27,0,0,0,63.46,61Z"/><path class="cls-1" d="M87.4,61.64c0,.73-.77.63-1.26.63a2.52,2.52,0,1,1-5,0H77.32a2.52,2.52,0,0,1-5,0h-.63c-.49,0-1.26.1-1.26-.63A.63.63,0,0,1,71,61V57.86a2.61,2.61,0,0,1,.45-2l1.94-1.94a1.72,1.72,0,0,1,1.07-.45h1.58V51.56a.64.64,0,0,1,.63-.63H86.77a.63.63,0,0,1,.63.63ZM76.06,57.23V54.71H74.51a.54.54,0,0,0-.22.09l-1.92,1.92a.56.56,0,0,0-.09.21v.3ZM74.8,61a1.26,1.26,0,1,0,1.26,1.26A1.27,1.27,0,0,0,74.8,61Zm8.82,0a1.26,1.26,0,1,0,1.27,1.26A1.27,1.27,0,0,0,83.62,61Z"/><path class="cls-1" d="M107.4,61.64c0,.73-.76.63-1.26.63a2.52,2.52,0,1,1-5,0H97.32a2.52,2.52,0,1,1-5,0h-.63c-.49,0-1.27.1-1.27-.63A.64.64,0,0,1,91,61V57.86a2.65,2.65,0,0,1,.44-2l2-1.94a1.7,1.7,0,0,1,1.07-.45h1.57V51.56a.64.64,0,0,1,.64-.63h10.08a.63.63,0,0,1,.62.63ZM96.06,57.23V54.71H94.51a.6.6,0,0,0-.22.09l-1.92,1.92a.76.76,0,0,0-.08.21v.3ZM94.81,61a1.26,1.26,0,1,0,1.25,1.26A1.27,1.27,0,0,0,94.81,61Zm8.81,0a1.26,1.26,0,0,0,0,2.52,1.26,1.26,0,1,0,0-2.52Z"/></g></g></svg>