<svg xmlns="http://www.w3.org/2000/svg" xmlns:xlink="http://www.w3.org/1999/xlink" viewBox="0 0 38.2 36.8" xml:space="preserve">


<path d="M38.2,25.7c-0.1,6.2-5.2,11.1-11.3,11.1H2.5c-1.4,0-2.5-1.1-2.5-2.5v-31C0,2.1,0.9,1,2.1,0.8  c6.6-1.1,13.4-1.1,20,0c1.2,0.2,2.1,1.3,2.1,2.5v28.4h2.7c3.4,0,6.1-2.6,6.2-6v-4L28.8,19c-0.6-0.4-0.8-1.2-0.4-1.8  c1-1.5,2-3.2,3-4.8l-4.5-4.7c-0.7-0.8-0.6-2,0.1-2.7l0,0c0.9-0.7,2.1-0.5,2.9,0.3l7.8,8.3c0.3,0.3,0.5,0.8,0.5,1.3V25.7z M17.8,5  H6.4C5.7,5,5.1,5.5,5.1,6.2l0,0v7.6c0,0.7,0.5,1.3,1.2,1.3l0,0h11.4c0.7,0,1.3-0.5,1.3-1.2l0,0V6.3C19.1,5.6,18.5,5,17.8,5L17.8,5z" var:color.fill="#000"></path>
</svg>
