<svg xmlns="http://www.w3.org/2000/svg" viewBox="0 0 71.33 71.33"><defs><style>.cls-1{fill:#c03a2b;}.cls-2{fill:#fff;}</style></defs><title>fuel</title><g id="Layer_2" data-name="Layer 2"><g id="Layer_1-2" data-name="Layer 1"><path class="cls-1" d="M71.33,35.67A35.67,35.67,0,1,1,35.67,0,35.67,35.67,0,0,1,71.33,35.67Z"/><path class="cls-2" d="M54.75,43A11.29,11.29,0,0,1,43.42,54.09H19.13a2.57,2.57,0,0,1-2.55-2.54v-31a2.59,2.59,0,0,1,2.11-2.5,59.71,59.71,0,0,1,20,0,2.58,2.58,0,0,1,2.1,2.5V49h2.67a6.18,6.18,0,0,0,6.24-6V39l-4.29-2.67a1.33,1.33,0,0,1-.4-1.79c1-1.47,2-3.18,3-4.81L43.46,25a1.89,1.89,0,0,1,.16-2.7,2.14,2.14,0,0,1,2.86.28l7.75,8.27a1.88,1.88,0,0,1,.52,1.27ZM34.39,22.29H23a1.26,1.26,0,0,0-1.28,1.27v7.63A1.26,1.26,0,0,0,23,32.47H34.39a1.26,1.26,0,0,0,1.28-1.28V23.56A1.26,1.26,0,0,0,34.39,22.29Z"/></g></g></svg>