<svg xmlns="http://www.w3.org/2000/svg" viewBox="0 0 35.64 33.28"><g><g><path d="M35.64,6.7V31.46A1.76,1.76,0,0,1,34.83,33a1.92,1.92,0,0,1-1.67.15L22.5,28.53l-8.43,4.53a1.68,1.68,0,0,1-.82.22,1.81,1.81,0,0,1-.74-.15L1.08,28.19A1.76,1.76,0,0,1,0,26.56V1.79A1.75,1.75,0,0,1,.82.31,1.79,1.79,0,0,1,2.49.16L13.14,4.77,21.57.24a1.06,1.06,0,0,1,.59-.19l0,0a1.51,1.51,0,0,1,.89.15l11.48,4.9A1.8,1.8,0,0,1,35.64,6.7ZM21.31,20.25a3.78,3.78,0,0,0-1.19-2.56,6.41,6.41,0,0,0-2.86-.63,5.08,5.08,0,0,0-1.74-.71c-.59,0-1.34.41-2.08.19s-.44.11-1.56.11c-.93,0-1-.37-1.08-1.19s-1-1-1.37-1.34a.73.73,0,0,0-1.11.15c-.34.37,0,.52-1.19,0s-.56-1.48,1-2c1-.34,3.16-.64,3.75.66.3.75,1.82-.22,1.19-2.41-.3-1-1.12-1.41-1.78-2.67L3.56,4.51V16.2a14.12,14.12,0,0,0,3.87.63,7.43,7.43,0,0,1,4.45,1.9S10.62,23,13.4,23.4a1.69,1.69,0,0,1,1.34,1.27,15,15,0,0,0,.45,2.3c.22.52.51,1.56,1.59.33a9.16,9.16,0,0,0,1.9-2.67,5.33,5.33,0,0,1,1.33-2A2.8,2.8,0,0,0,21.31,20.25ZM32.08,7.89,26.21,5.36A18.35,18.35,0,0,0,22.8,7.14c-2.08,1.75-2.23,3.31.07,6,.63.78,1.93,1,2.82,1.15,2.16.41,2.82.7,2.6,3.41A13.39,13.39,0,0,0,29,21.55a2.1,2.1,0,0,0,1.45,1c.29,0,1-.41,1.67-1.15Z" var:color.fill="#000"></path></g></g></svg>
