<svg xmlns="http://www.w3.org/2000/svg" viewBox="0 0 49.18 49.18"><title>Globe</title><g id="Layer_2" data-name="Layer 2"><g id="capacity"><path d="M24.59,0A24.59,24.59,0,1,0,49.18,24.59,24.62,24.62,0,0,0,24.59,0ZM37.64,5.08c.72.49,1.42,1,2.09,1.57-.1.17-.12.3,0,.36s-.21.86-.5,1.33l-.68-.57a13,13,0,0,0-.83-1.87C37.56,5.77,37.59,5.36,37.64,5.08ZM32.49,21.51l.42-.58h.55l1.11.38-.07-.84H35l1,.86h1.73a7.94,7.94,0,0,1-.35.93c-.14.25-1,.5-1,.5H35.05l-.62-.07-.76.49-.76-.35a6.28,6.28,0,0,1-1-1c-.07-.21-1.11-.35-1.32-.42a2.17,2.17,0,0,0-1.39,0,2.47,2.47,0,0,1-1,.42c-.62.14.63-.83,1-.93s.49-.74.7-1.22,1.11,0,1.11,0h.55a3.39,3.39,0,0,1,.84.76c.2.35-.14.21-.28.46S32.49,21.51,32.49,21.51Zm3-2.49a2.2,2.2,0,0,0,.69-.46c.21-.24.63,0,.63,0l.38-.93s.38.69.45.9.83.56.83.56l-.41.41H37s-.49,0-1,0ZM38,23.94a4.16,4.16,0,0,1,.48.94c.14.46,1,1.21,1.11,1.88a2.9,2.9,0,0,1,0,1.21s-.62-.77-.83-1.11a6,6,0,0,0-1.11-1.18c-.28-.21-.35-1.74-.35-1.74ZM22,11.19l0,0,.11-.08-.1.08c.05,0,.07-.06,0,0l-.05,0,0,0,0,0h0l0,0ZM1.11,24.92l.08.06L1.12,25A.49.49,0,0,0,1.11,24.92Zm0,.65.06,0c.48.28,0,.07.48.28a4.34,4.34,0,0,0,.49.2.61.61,0,0,1,0-.41c.07-.28.35.21.07-.28s-.14.07-.28-.49l-.14-.55S1.67,24,1.88,24s.47.77.47.77a3.77,3.77,0,0,0,.57,1l.21.14a1.42,1.42,0,0,1,.35.55c.07.28-.35.35,0,.56s-.14-.21.34.2.77.35,1,.49.27-.42.48,0-.41,0,.21.42,1,.62,1,.62.07-.42.49,0a1.73,1.73,0,0,0,.9.49,1.2,1.2,0,0,0,.42.48c.34.28,0-.14.34.28L9,30.4l.62.41h.28l.21.35.56.69v.49s-.35-.49-.35,0,.07.07,0,.49l-.07.41.42.56v1a5,5,0,0,0,.62.62c.21.14-.35-.34.21.14L12,36l.77.69V37s.48-.35.69,0a6.62,6.62,0,0,0,.49.69V38s.27-.55.41,0a1.26,1.26,0,0,1,0,.83,2.08,2.08,0,0,1,.49.56c.07.21-.14.42,0,.62a6.27,6.27,0,0,1,.35,1.11l.55,1.11s-.14.42,0,.63.35.62.35.62a.59.59,0,0,0,0,.91c.48.48.21,0,.48.48s.49,1,.49,1l.9,1,.59.45A23.54,23.54,0,0,1,1.13,25.57Zm23.46,22.5a23.63,23.63,0,0,1-5.29-.6h.14l-.7-1.39s.14-.42-.06-.62l-.21-.21-.21-.35v-.48s.28-.35,0-.49-.28.28-.28-.14v-.42a2.8,2.8,0,0,0,.49-.48c.14-.21-.07.28.14-.21A8.33,8.33,0,0,0,19,41.57l.49-.42v-.9a1,1,0,0,1,0-.49,2.09,2.09,0,0,0,0-.69l.42-.28c.2-.14.76-.62.76-.62s-.35-.21,0-.42.55-.41.48-.69.07.42-.06-.28a4.16,4.16,0,0,1-.21-1.11c0-.49-.28-.07,0-.49s.69-1.21.69-1.21a3.22,3.22,0,0,0-.69-.59c-.21-.07-.42-.21-.77-.35s-1.31-.48-1.31-.48-.49-.21-.7-.28a5.54,5.54,0,0,1-.9-1,4.58,4.58,0,0,1-.69-.21,2,2,0,0,1-1-.49c-.2-.2-.76-.69-.76-.69l-.14-.35s-.21.21-.83.14a2.56,2.56,0,0,1-1.18-.55,1.73,1.73,0,0,0-.63.13,8.92,8.92,0,0,0-.76.49l-.48.14-.91-.07-.62-.35-.35-.76a.91.91,0,0,0-.27-.49c-.21-.13-.77-.55-.77-.55l.28-.83s-.28-.35-.56-.21a3.56,3.56,0,0,0-.69.62.54.54,0,0,1-.42.07,2.38,2.38,0,0,1-.9-.55,1.27,1.27,0,0,1-.41-.91,6.65,6.65,0,0,1,.41-1.11l1.18-.83h.7l.76-.35.76,1,.63.76s.76-.49.59-.69-.46-.63-.46-.63.35-.56.46-.76.24-.28.52-.7l.55-.83c.14-.21.7-1.18.7-1.18l.55-.42.49-.62.34-.35h.56l1-.48h.63l-.56-.7-.35-.41a3.52,3.52,0,0,1,1.32-.56s1-.55.9-.35a10.79,10.79,0,0,1-.83,1.18l.56.42s.62.14.76-.07a2.25,2.25,0,0,0,.21-.69l-.21-.88v-1c0-.34-.14-1.25-.35-1.11s-.42-.62-.42-.62v-1l-.76.69s-.55-.07-.48-.28.41-.41.41-.41l-.76-.63s-.83-.55-1-.35a5.6,5.6,0,0,0-.35.77l-.35.76v.49l-.27.69-.84.83-.41.84s-.14-1-.14-1.25-.9-1-.9-1l-.21-.84a3,3,0,0,0,.27-.76c0-.21.35-.62.63-.9a10.84,10.84,0,0,1,1.18-1c.21-.14.69-.42.69-.42l-.14,1.18L14,11.1l-.14-.62.76-.42L15,9s.41-1,.62-.83a5.21,5.21,0,0,1,.7.76l-.77,1.53h-.62l-.21.62a1.77,1.77,0,0,1,.63.28,8.58,8.58,0,0,1,.76.76l.83-.62v-.56h.63L18,10l-.14-.62a2.24,2.24,0,0,1,.07-.49L18,8.6l-.28-.5V6.87l-.41-.76H16L13.82,5.06h-.56l-.95-.48a23.26,23.26,0,0,1,5.32-2.41c-.22.15-.34.29-.34.4A3.37,3.37,0,0,0,17.62,4a1.38,1.38,0,0,0,.71.63l.28-.07c.28-.07.83-.77,1-1A6.82,6.82,0,0,1,21,2.7l.12-.06.39,0h0l.15,0c-.14,0-.37.18-.51.45l-.47.35-.56.41a1.79,1.79,0,0,0,0,1.25l.21.35.21.35a3.4,3.4,0,0,1,.07.48v.21c0,.21-.07.83-.07,1s-.42,1.32-.42,1.53a11.44,11.44,0,0,1-.27,1.46l-.42.27c-.42.28-.06.49,0,.84s-.48.27,0,.69.28,0,.48.42.07.14.49,0l.39-.13c.63-.78,1.13-1.4,1.11-1.39l0,0h0l.16-.12.16-.13c.91-.69.35-.35.91-.69s-.14-.14.55-.35l.7-.21a4.31,4.31,0,0,0,1.38-1.25l.07-.2c.07-.21.21-.21,0-.49s-.48.42-.2-.28.15-.69.31-1-.3.14,0-.62l.31-.77a.49.49,0,0,0-.21-.62l.42-.28a2.21,2.21,0,0,0,.66-.62.59.59,0,0,0-.11-.7l.35-.2c.35-.21.28.14.49-.42a5,5,0,0,1,.2-.56l.15-.33A23.37,23.37,0,0,1,37.55,5a1.49,1.49,0,0,1-.4.39c-.4.28.13.84,0,1.11a1.17,1.17,0,0,0,0,.7,12.11,12.11,0,0,0,1.27.9,1.87,1.87,0,0,1,.56.57l0,.05a2.08,2.08,0,0,1-.52.28l-1.27.62s-.85.28-.92,0-.69-.41-.69-.41a2.19,2.19,0,0,0-.62-.42,3.76,3.76,0,0,1-.77-.48s-.62-.21-.9.07-1.11.48-1.25,1-.35,1-.41,1.25a8.46,8.46,0,0,1-1.18,1.59c-.28.28-.63.83-.42,1.11s.76,1,1,.84l.21-.14,1,.69s.8-1.71.75-1.72-.32-1,0-1.19.55-1.25.76-1.05-.28,1.74-.28,1.74l1.18.5s.83-.41.48,0-1,.82-1,1a14.6,14.6,0,0,1-1.12,1.38H32a1.82,1.82,0,0,0-1.25,0,11.84,11.84,0,0,0-1.46,1.25v1s-.69-.41-.83,0a1.9,1.9,0,0,0,0,.94l.28.59a.87.87,0,0,1-.66.34c-.52.08-.66-.42-.8,0a2.42,2.42,0,0,0,0,1.05l-.06.79s.34-1.08.27,0,.49.18-.07,1.08,0,.21-.55.9-.56,1-1,1.57-.54,1.21-.79,1.38,0,.32,0,.59a9.91,9.91,0,0,0,0,1.11s.52,1.05.66,1.25a5,5,0,0,0,.48.77l.28.34s.62-.2.83,0l.21.21h1c.21,0,.35.14.56,0a5.23,5.23,0,0,1,.76-.34l.83.4.7.29c.21.55-.14,1.25.07,1.53s.69,1,.9,1a1.23,1.23,0,0,1,.54.28V35l-.33.77-.07.41a2.74,2.74,0,0,0,0,1.11c.14.42.21,1.39.45,1.6a2.2,2.2,0,0,1,.38.9l.56,1.18,1.66-.55a1.79,1.79,0,0,0,1-1.18c.28-.7.31-1.46.57-1.67a5.84,5.84,0,0,0,.89-.9,7.5,7.5,0,0,0,1-1.46,15,15,0,0,0-.14-2A.87.87,0,0,1,39,32.4a12,12,0,0,0,1.32-1.52c.14-.28,1-1.39,1.11-1.6s.21-1.18,0-1-1,.56-1,.56-.63-.91-.35-.84a3.77,3.77,0,0,0,2-.6A10.8,10.8,0,0,0,43.52,26V24.88a2.81,2.81,0,0,0-.55-.32,6.75,6.75,0,0,0-.84-.14l-.55-.48s-1.39-.9-.9-.84a21.59,21.59,0,0,1,2.36.84,9,9,0,0,0,1.38,0c.21-.07,1.39.77,1.6.94a14,14,0,0,1,1,1.38l.83,1.1v0A23.52,23.52,0,0,1,24.59,48.07Z"/></g></g></svg>