<svg xmlns="http://www.w3.org/2000/svg" viewBox="0 0 71.33 71.33"><defs><style>.cls-1{fill:#c03a2b;}.cls-2{fill:#fff;}</style></defs><title>coordination</title><g id="Layer_2" data-name="Layer 2"><g id="Layer_1-2" data-name="Layer 1"><circle class="cls-1" cx="35.67" cy="35.67" r="35.67"/><path class="cls-2" d="M56.23,38.69a1,1,0,0,1-.75,1l-4.95.75a15.45,15.45,0,0,1-1,2.43c.91,1.32,1.87,2.5,2.86,3.7a1.07,1.07,0,0,1,.27.67.91.91,0,0,1-.24.62c-.64.85-4.26,4.79-5.17,4.79a1.43,1.43,0,0,1-.7-.24l-3.69-2.89a15.68,15.68,0,0,1-2.44,1,34.86,34.86,0,0,1-.78,5,1,1,0,0,1-1,.75h-6a1,1,0,0,1-1-.8L31,50.5a15.27,15.27,0,0,1-2.41-1l-3.78,2.87a1,1,0,0,1-.66.24.93.93,0,0,1-.67-.3A32.89,32.89,0,0,1,19,47.83a1,1,0,0,1-.19-.62,1.05,1.05,0,0,1,.21-.62c.92-1.23,1.91-2.41,2.82-3.67a13.86,13.86,0,0,1-1.1-2.65l-4.9-.72a1,1,0,0,1-.78-1v-6a1,1,0,0,1,.72-1l5-.75a13.63,13.63,0,0,1,1-2.47C20.94,27.18,20,26,19,24.77a1,1,0,0,1-.26-.64,1,1,0,0,1,.24-.62c.64-.88,4.26-4.79,5.17-4.79a1.16,1.16,0,0,1,.69.26l3.7,2.87a16.21,16.21,0,0,1,2.43-1,35.3,35.3,0,0,1,.78-5,1,1,0,0,1,1-.75h6a1,1,0,0,1,1,.8l.75,4.93a15.84,15.84,0,0,1,2.41,1L46.57,19a.91.91,0,0,1,.64-.24,1.06,1.06,0,0,1,.67.26,34.61,34.61,0,0,1,4.42,4.56.93.93,0,0,1,.19.59,1,1,0,0,1-.22.61c-.91,1.23-1.9,2.41-2.81,3.67A15.52,15.52,0,0,1,50.56,31l4.9.75a1,1,0,0,1,.77,1ZM35.67,28.81a6.86,6.86,0,1,0,6.85,6.86A6.87,6.87,0,0,0,35.67,28.81Z"/></g></g></svg>