<svg xmlns="http://www.w3.org/2000/svg" xmlns:xlink="http://www.w3.org/1999/xlink" viewBox="0 0 41.4 41.2" xml:space="preserve">


<path d="M41.3,23.5c0,0.5-0.3,0.9-0.8,1l-5,0.8c-0.3,0.8-0.6,1.6-1,2.4c0.9,1.3,1.9,2.5,2.9,3.7  c0.2,0.2,0.3,0.4,0.3,0.7c0,0.2-0.1,0.5-0.2,0.6c-0.6,0.8-4.3,4.8-5.2,4.8c-0.3,0-0.5-0.1-0.7-0.2l-3.7-2.9c-0.8,0.4-1.6,0.7-2.4,1  c-0.1,1.7-0.4,3.4-0.8,5c-0.1,0.5-0.5,0.8-1,0.8h-6c-0.5,0-0.9-0.3-1-0.8l-0.6-5c-0.8-0.3-1.6-0.6-2.4-1l-3.8,2.9  c-0.2,0.2-0.4,0.2-0.7,0.2c-0.3,0-0.5-0.1-0.7-0.3c-1.6-1.3-3.1-2.8-4.5-4.5c-0.1-0.2-0.2-0.4-0.2-0.6c0-0.2,0.1-0.4,0.2-0.6  c0.9-1.2,1.9-2.4,2.8-3.7C6.3,27,6,26.1,5.7,25.1l-4.9-0.7c-0.5-0.1-0.8-0.5-0.8-1v-6c0-0.5,0.3-0.9,0.7-1l5-0.8  c0.3-0.9,0.6-1.7,1-2.5C6,12,5.1,10.8,4.1,9.6C3.9,9.4,3.8,9.2,3.8,9S3.9,8.6,4,8.4c0.6-0.9,4.3-4.8,5.2-4.8c0.3,0,0.5,0.1,0.7,0.3  l3.7,2.9c0.8-0.4,1.6-0.7,2.4-1c0.1-1.7,0.4-3.4,0.8-5c0.1-0.5,0.5-0.8,1-0.8h6c0.5,0,0.9,0.3,1,0.8l0.8,4.9c0.8,0.3,1.6,0.6,2.4,1  l3.7-2.8c0.2-0.2,0.4-0.2,0.6-0.2c0.2,0,0.5,0.1,0.7,0.3c1.6,1.4,3.1,2.9,4.4,4.6c0.1,0.2,0.2,0.4,0.2,0.6s-0.1,0.4-0.2,0.6  c-0.9,1.2-1.9,2.4-2.8,3.7c0.4,0.8,0.8,1.7,1.1,2.5l4.9,0.8c0.5,0.1,0.8,0.5,0.8,1L41.3,23.5z M20.8,13.6c-3.8,0-6.9,3.1-6.9,6.8  c0,3.8,3.1,6.9,6.8,6.9s6.9-3.1,6.9-6.8l0,0C27.6,16.7,24.6,13.6,20.8,13.6z" ></path>
</svg>
