<svg xmlns="http://www.w3.org/2000/svg" viewBox="0 0 61.07 81.15"><g><g><path d="M12.94,52.86a2.82,2.82,0,0,1,4-4l.33.33,3.07-3.07a2.94,2.94,0,0,1,4,.16,2.71,2.71,0,0,1,0,3.74L19.25,55.1a2.85,2.85,0,0,1-4,0Zm2.33-10.29a2.85,2.85,0,0,0,4,0l5.06-5.06a2.94,2.94,0,0,0-.16-4,2.71,2.71,0,0,0-3.74,0l-3.15,3.15-.33-.33a2.82,2.82,0,0,0-4,4ZM31,53.36H46.13a2.74,2.74,0,0,0,0-5.48H31a2.74,2.74,0,1,0,0,5.48Zm0-12.53H46.13a2.74,2.74,0,0,0,0-5.48H31a2.74,2.74,0,0,0,0,5.48ZM31,66H46.13a2.74,2.74,0,1,0,0-5.48H31A2.74,2.74,0,1,0,31,66ZM20.33,58.75,17.18,61.9l-.34-.33a2.82,2.82,0,1,0-4.14,3.82l.16.17,2.32,2.32a2.86,2.86,0,0,0,4,0l5.06-5.06a3,3,0,0,0-.17-4A2.8,2.8,0,0,0,20.33,58.75ZM9.54,81.07A9.47,9.47,0,0,1,0,71.61v-47A9.6,9.6,0,0,1,9.54,15h6.81V12.78a3.23,3.23,0,0,1,3.23-3.23h1.16A9.67,9.67,0,0,1,30.78,0a10,10,0,0,1,9.63,9.63h1.16a3.25,3.25,0,0,1,3.24,3.24v2.24h6.8a9.47,9.47,0,0,1,9.46,9.54V71.7a9.45,9.45,0,0,1-9.46,9.45H9.54ZM27.3,9.63a3.2,3.2,0,0,0,6.39-.08,3.15,3.15,0,0,0-3.16-3.16A3.19,3.19,0,0,0,27.3,9.63ZM9.54,73.6h42a2,2,0,0,0,2-2v-47a2,2,0,0,0-2-2H44.72v2.58a3.23,3.23,0,0,1-3.23,3.23h-22a3.24,3.24,0,0,1-3.24-3.23h0V22.57H9.54a2,2,0,0,0-2,2v47A2,2,0,0,0,9.54,73.6Z" var:color.fill="#000"></path></g></g></svg>
