<?xml version="1.0" encoding="utf-8"?>
<!-- Generator: Adobe Illustrator 23.0.3, SVG Export Plug-In . SVG Version: 6.00 Build 0)  -->
<svg version="1.1" id="Layer_1" xmlns="http://www.w3.org/2000/svg" xmlns:xlink="http://www.w3.org/1999/xlink" x="0px" y="0px"
	 viewBox="0 0 61.1 81.2" style="enable-background:new 0 0 61.1 81.2;" xml:space="preserve">
<title>lc-preparedness</title>
<g>
	<g id="Layer_1-2">
		<path d="M12.9,52.9c-1.1-1.1-1.1-2.9,0-4s2.9-1.1,4,0l0.3,0.3l3.1-3.1c1.2-1,2.9-0.9,4,0.2c1,1,1,2.7,0,3.7l-5.1,5.1
			c-1.1,1.1-2.9,1.1-4,0L12.9,52.9z M15.3,42.6c1.1,1.1,2.9,1.1,4,0l5.1-5.1c1-1.2,0.9-2.9-0.2-4c-1-1-2.7-1-3.7,0l-3.1,3.2L17,36.3
			c-1.1-1.1-2.9-1.1-4,0s-1.1,2.9,0,4L15.3,42.6z M31,53.4h15.1c1.5,0,2.7-1.2,2.7-2.7c0-1.5-1.2-2.7-2.7-2.7H31
			c-1.5,0-2.7,1.2-2.7,2.7C28.3,52.1,29.5,53.4,31,53.4C31,53.4,31,53.4,31,53.4z M31,40.8h15.1c1.5,0,2.7-1.2,2.7-2.7
			c0-1.5-1.2-2.7-2.7-2.7H31c-1.5,0-2.7,1.2-2.7,2.7C28.3,39.6,29.5,40.8,31,40.8z M31,66h15.1c1.5,0,2.7-1.2,2.7-2.7
			c0-1.5-1.2-2.7-2.7-2.7c0,0,0,0,0,0H31c-1.5,0-2.7,1.2-2.7,2.7C28.3,64.8,29.5,66,31,66C31,66,31,66,31,66z M20.3,58.8l-3.1,3.2
			l-0.3-0.3c-1-1.2-2.8-1.4-4-0.4c-1.2,1-1.4,2.8-0.4,4c0.1,0.1,0.1,0.1,0.2,0.2l0.2,0.2l2.3,2.3c1.1,1.1,2.9,1.1,4,0l5.1-5.1
			c1-1.2,0.9-2.9-0.2-4C23,57.8,21.4,57.8,20.3,58.8z M9.5,81.1c-5.2,0-9.5-4.2-9.5-9.4c0,0,0,0,0-0.1v-47C0,19.3,4.3,15,9.5,15h6.8
			v-2.2c0-1.8,1.4-3.2,3.2-3.2h1.2c0.1-5.3,4.4-9.6,9.8-9.6c0.1,0,0.2,0,0.3,0c5.2,0.2,9.4,4.4,9.6,9.6h1.2c1.8,0,3.2,1.5,3.2,3.2
			v2.2h6.8c5.2,0,9.5,4.2,9.5,9.5c0,0,0,0,0,0.1v47c0,5.2-4.2,9.5-9.4,9.5c0,0,0,0,0,0L9.5,81.1L9.5,81.1z M27.3,9.6
			c0.1,1.8,1.6,3.1,3.4,3c1.6-0.1,2.9-1.4,3-3.1c0-1.7-1.4-3.2-3.1-3.2c0,0,0,0,0,0C28.8,6.4,27.3,7.8,27.3,9.6
			C27.3,9.6,27.3,9.6,27.3,9.6z M9.5,73.6h42c1.1,0,2-0.9,2-2v-47c0-1.1-0.9-2-2-2h-6.8v2.6c0,1.8-1.4,3.2-3.2,3.2h-22
			c-1.8,0-3.2-1.4-3.2-3.2l0,0v-2.6H9.5c-1.1,0-2,0.9-2,2v47C7.5,72.7,8.4,73.6,9.5,73.6C9.5,73.6,9.5,73.6,9.5,73.6z"/>
	</g>
</g>
</svg>
