<svg xmlns="http://www.w3.org/2000/svg" viewBox="0 0 71.33 71.33"><defs><style>.cls-1{fill:#c03a2b;}.cls-2{fill:#fff;}</style></defs><title>road</title><g id="Layer_2" data-name="Layer 2"><g id="Layer_1-2" data-name="Layer 1"><path class="cls-1" d="M71.33,35.67A35.67,35.67,0,1,1,35.67,0,35.66,35.66,0,0,1,71.33,35.67Z"/><path class="cls-2" d="M58.8,46c0,2-2.08,1.71-3.42,1.71a6.86,6.86,0,1,1-13.72,0H31.38a6.86,6.86,0,1,1-13.71,0H16c-1.34,0-3.43.27-3.43-1.71a1.72,1.72,0,0,1,1.71-1.71V35.67c0-1.9-.27-4,1.21-5.49l5.3-5.3a4.68,4.68,0,0,1,2.92-1.21H28V18.53a1.73,1.73,0,0,1,1.72-1.72H57.09a1.72,1.72,0,0,1,1.71,1.72ZM28,34V27.1H23.72a1.67,1.67,0,0,0-.59.24l-5.22,5.22a1.6,1.6,0,0,0-.24.59V34ZM24.53,44.24A3.43,3.43,0,1,0,28,47.66,3.45,3.45,0,0,0,24.53,44.24Zm24,0A3.43,3.43,0,1,0,52,47.66,3.45,3.45,0,0,0,48.52,44.24Z"/></g></g></svg>