<svg xmlns="http://www.w3.org/2000/svg" xmlns:xlink="http://www.w3.org/1999/xlink" viewBox="0 0 46.2 38" xml:space="preserve">


<g>
	<g>
		<path d="M46.2,29.2c0,2-2.1,1.7-3.4,1.7c0,3.8-3.1,6.9-6.9,6.9s-6.9-3.1-6.9-6.9H18.8c0.2,3.8-2.8,7-6.6,7.1    s-7-2.8-7.1-6.6c0,0,0,0,0-0.1c0-0.2,0-0.3,0-0.5H3.4c-1.3,0-3.4,0.3-3.4-1.7c0-0.9,0.8-1.7,1.7-1.7v-8.6c0-1.9-0.3-4,1.2-5.5    l5.3-5.3c0.8-0.7,1.8-1.2,2.9-1.2h4.3V1.7c0-0.9,0.8-1.7,1.7-1.7h27.4c0.9,0,1.7,0.8,1.7,1.7V29.2z M15.4,17.2v-6.9h-4.3    c-0.2,0-0.4,0.1-0.6,0.2l-5.2,5.2c-0.1,0.2-0.2,0.4-0.2,0.6v0.9H15.4z M12,27.4c-1.9,0-3.4,1.6-3.4,3.5c0,1.9,1.6,3.4,3.5,3.4    c1.9,0,3.4-1.6,3.4-3.4C15.5,29,13.9,27.4,12,27.4C12,27.4,12,27.4,12,27.4z M36,27.4c-1.9,0-3.4,1.6-3.4,3.5    c0,1.9,1.6,3.4,3.5,3.4c1.9,0,3.4-1.6,3.4-3.4C39.5,29,37.9,27.4,36,27.4C36,27.4,36,27.4,36,27.4L36,27.4z" var:color.fill="#000"></path>
	</g>
</g>
</svg>
