<svg xmlns="http://www.w3.org/2000/svg" viewBox="0 0 71.33 71.33"><defs><style>.cls-1{fill:#c03a2b;}.cls-2{fill:#fff;}</style></defs><title>sea</title><g id="Layer_2" data-name="Layer 2"><g id="Layer_1-2" data-name="Layer 1"><path class="cls-1" d="M71.33,35.67A35.67,35.67,0,1,1,35.67,0,35.66,35.66,0,0,1,71.33,35.67Z"/><polygon class="cls-2" points="24.89 29.15 24.89 20.72 29.45 20.72 29.45 16.71 42.3 16.71 42.3 20.86 46.17 20.86 46.17 29.15 49.35 29.15 49.35 18.1 45.34 18.1 45.34 14.23 38.98 14.23 38.98 9.11 32.08 9.11 32.08 13.54 25.99 13.54 25.99 17.68 21.98 17.68 21.98 29.15 24.89 29.15"/><path class="cls-2" d="M22.12,35.83H22V47.32c9.13.53,18.25-4.42,27.37-2.92V35.83h-.13l2.59-5.09a1.83,1.83,0,0,0-.8-2.48L36.75,21a1.87,1.87,0,0,0-.94-.33h-.28a1.9,1.9,0,0,0-1,.33L20.33,28.26a1.84,1.84,0,0,0-.81,2.48Z"/><path class="cls-2" d="M55,53c-12.9-5.64-25.81,5.64-38.7,0V48.27c12.89,5.63,25.8-5.65,38.7,0Z"/><path class="cls-2" d="M55.09,60.59c-12.9-5.64-25.8,5.64-38.7,0v-4.7c12.9,5.64,25.8-5.64,38.7,0Z"/></g></g></svg>