<svg xmlns="http://www.w3.org/2000/svg" xmlns:xlink="http://www.w3.org/1999/xlink" viewBox="0 0 38.8 53.1" xml:space="preserve">


<g>
	<polygon points="8.6,20.1 8.6,11.6 13.2,11.6 13.2,7.6 26,7.6 26,11.8 29.9,11.8 29.9,20.1 33,20.1 33,9 29,9 29,5.1    22.7,5.1 22.7,0 15.8,0 15.8,4.4 9.7,4.4 9.7,8.6 5.7,8.6 5.7,20.1  " var:color.fill="#000"></polygon>
	<path d="M5.8,26.7H5.7v11.5c9.1,0.5,18.2-4.4,27.4-2.9v-8.6H33l2.6-5.1c0.5-0.9,0.1-2-0.8-2.5l0,0l-14.3-7.2   c-0.3-0.2-0.6-0.3-0.9-0.3h-0.3c-0.4,0-0.7,0.1-1,0.3L4.1,19.2c-0.9,0.5-1.3,1.6-0.8,2.5l0,0L5.8,26.7z" var:color.fill="#000"></path>
	<path d="M38.7,43.9c-12.9-5.6-25.8,5.6-38.7,0v-4.7c12.9,5.6,25.8-5.7,38.7,0V43.9z" var:color.fill="#000"></path>
	<path d="M38.8,51.5c-12.9-5.6-25.8,5.6-38.7,0v-4.7c12.9,5.6,25.8-5.6,38.7,0V51.5z" var:color.fill="#000"></path>
</g>
</svg>
