<svg xmlns="http://www.w3.org/2000/svg" viewBox="0 0 71.33 71.33"><defs><style>.cls-1{fill:#c03a2b;}.cls-2{fill:#fff;}</style></defs><title>storage</title><g id="Layer_2" data-name="Layer 2"><g id="Layer_1-2" data-name="Layer 1"><circle class="cls-1" cx="35.67" cy="35.67" r="35.67"/><path class="cls-2" d="M54,28.17V53.23H48.77V29.85l-13.1-7.66L22.56,29.85V53.23H17.32V28.17a2.56,2.56,0,0,1,1.31-2.25l15.69-9.17a2.59,2.59,0,0,1,2.66,0L52.7,25.92A2.54,2.54,0,0,1,54,28.17Zm-9.62,5.08a14.67,14.67,0,0,1,0,7.21,1.37,1.37,0,0,1-1.31,1H28.21a1.31,1.31,0,0,1-1.26-1,13.75,13.75,0,0,1-.46-3.61,15.05,15.05,0,0,1,.46-3.6,1.31,1.31,0,0,1,1.26-1H43.08A1.37,1.37,0,0,1,44.39,33.25Zm0,11.79a14.67,14.67,0,0,1,0,7.21,1.37,1.37,0,0,1-1.31,1H28.21a1.31,1.31,0,0,1-1.26-1A14.36,14.36,0,0,1,27,45a1.31,1.31,0,0,1,1.26-1H43.08A1.37,1.37,0,0,1,44.39,45Z"/></g></g></svg>