<svg xmlns="http://www.w3.org/2000/svg" xmlns:xlink="http://www.w3.org/1999/xlink" viewBox="0 0 36.6 36.9" xml:space="preserve">


<path d="M36.6,11.8v25.1h-5.2V13.5L18.3,5.8L5.2,13.5v23.4H0V11.8c0-0.9,0.5-1.8,1.3-2.2L17,0.4c0.8-0.5,1.8-0.5,2.7,0  l15.7,9.2C36.1,10,36.6,10.8,36.6,11.8z M27,16.9c0.6,2.4,0.6,4.8,0,7.2c-0.2,0.6-0.7,1-1.3,1H10.8c-0.6,0-1.1-0.4-1.3-1  C9.2,22.9,9,21.7,9,20.5c0-1.2,0.2-2.4,0.5-3.6c0.1-0.6,0.7-1,1.3-1h14.9C26.3,15.9,26.8,16.3,27,16.9L27,16.9z M27,28.6  c0.6,2.4,0.6,4.8,0,7.2c-0.2,0.6-0.7,1-1.3,1H10.8c-0.6,0-1.1-0.4-1.3-1c-0.6-2.4-0.6-4.9,0.1-7.2c0.1-0.6,0.7-1,1.3-1h14.8  C26.3,27.6,26.8,28,27,28.6L27,28.6z" var:color.fill="#000"></path>
</svg>
