<svg xmlns="http://www.w3.org/2000/svg" viewBox="0 0 85.48 87.79"><g fill="#C03A2B"><path d="M65 14.4a40.21 40.21 0 0114 50.49c-.51 1.08-1.08 2.16-1.69 3.19a2.43 2.43 0 01-4.45-.59 2.41 2.41 0 01.24-1.84.46.46 0 00.06-.22.52.52 0 00.2-.19c.41-.71.79-1.45 1.16-2.2 7.31-15.11 1.6-35.64-12.48-44.81a35.66 35.66 0 00-8.74-4.13 11.18 11.18 0 00.7-3.84v-1a40.76 40.76 0 0111 5.14z" ></path><path d="M42.73 0a10.27 10.27 0 11-9.17 14.86 29.19 29.19 0 016.6-1.28c.8-.06 1.62-.09 2.42-.09a.6.6 0 00.23-.06.46.46 0 00.25.08 3.43 3.43 0 000-6.86c-1.22 0-2.47 0-3.7.13a41.13 41.13 0 00-6.6 1.09A10.23 10.23 0 0142.73 0z" ></path><path d="M2.7 45.13A40.21 40.21 0 0139.43 7.77c1.2-.1 2.42-.14 3.61-.13a2.43 2.43 0 010 4.86.6.6 0 00-.23.06.46.46 0 00-.25-.08c-.82 0-1.66 0-2.48.1C23.34 13.8 8.43 29 7.52 45.79a35.17 35.17 0 00.78 9.56 11.21 11.21 0 00-3.66 1.33c-.3.18-.6.37-.88.57A40.34 40.34 0 012.7 45.13z" ></path><path d="M1.38 71.57a10.26 10.26 0 1117.43.5A29.32 29.32 0 0114.42 67c-.45-.67-.89-1.35-1.29-2.05a.44.44 0 00-.13-.15.48.48 0 00-.06-.26 3.45 3.45 0 00-2.08-1.6 3.37 3.37 0 00-2.6.34A3.43 3.43 0 007 68c.61 1.07 1.27 2.12 2 3.13a40.22 40.22 0 004.25 5.16 10.16 10.16 0 01-11.87-4.72z" ></path><path d="M60.48 83.67A40.22 40.22 0 019.76 70.54c-.68-1-1.33-2-1.92-3.06A2.43 2.43 0 1112 65a.55.55 0 00.17.17.48.48 0 00.06.26c.42.71.86 1.42 1.33 2.1 6.5 9.58 18.33 15.08 30 15.08a33.35 33.35 0 0015.09-3.48 35.68 35.68 0 007.91-5.48 11 11 0 003 2.56c.28.16.57.29.87.43a40.77 40.77 0 01-9.95 7.03zM84.09 71.63a10.25 10.25 0 01-12.33 4.53.51.51 0 00-.4-.14 10.56 10.56 0 01-1.27-.61 10.26 10.26 0 015.74-19.13 30.08 30.08 0 01-2.19 6.36c-.35.73-.73 1.45-1.13 2.14a.46.46 0 00-.06.23.41.41 0 00-.19.18 3.38 3.38 0 00-.34 2.6 3.45 3.45 0 001.6 2.08 3.39 3.39 0 002.6.34 3.45 3.45 0 002.08-1.6c.62-1.06 1.21-2.16 1.73-3.27a39.86 39.86 0 002.35-6.26 10.21 10.21 0 011.81 12.55zM55.52 39.85a.51.51 0 00-.24-.43L43 32a.49.49 0 00-.52 0l-12.37 7.4a.5.5 0 00-.25.43.5.5 0 00.25.43l12.37 7.31a.48.48 0 00.26.07.43.43 0 00.25-.07l12.28-7.31a.5.5 0 00.25-.41zM29.74 41.57a.47.47 0 00-.5 0A.49.49 0 0029 42v14.22a.5.5 0 00.25.43l11.89 7.12a.59.59 0 00.25.07.45.45 0 00.25-.07.48.48 0 00.25-.43V49.11a.5.5 0 00-.24-.43zM56.24 41.56a.5.5 0 00-.5 0l-12 7.12a.5.5 0 00-.24.43v14.23a.48.48 0 00.25.43.43.43 0 00.25.07.59.59 0 00.25-.07l12-7.12a.5.5 0 00.24-.43V42a.5.5 0 00-.25-.44z" ></path></g></svg>
