<svg xmlns="http://www.w3.org/2000/svg" viewBox="0 0 64.5 54.68"><defs><style>.cls-1{fill-rule:evenodd;}</style></defs><title>Training</title><g id="Layer_2" data-name="Layer 2"><g id="Layer_1-2" data-name="Layer 1"><path class="cls-1" d="M20.13,54.68V51.16a1.59,1.59,0,0,1,1.6-1.59H31.87a1.59,1.59,0,0,1,1.59,1.59v3.52Zm15.52,0V51.16a1.59,1.59,0,0,1,1.59-1.59H47.39A1.59,1.59,0,0,1,49,51.16v3.52Zm15.52,0V51.16a1.59,1.59,0,0,1,1.59-1.59H62.91a1.59,1.59,0,0,1,1.59,1.59v3.52ZM3.55,49.37V34.21H1.68A1.68,1.68,0,0,1,0,32.53V17.36a1.68,1.68,0,0,1,1.68-1.68H5.83l3.48,3.48,3.48-3.48H18V4a1.89,1.89,0,0,1,1.89-1.89H32.15a1.1,1.1,0,0,1,0-.26A1.89,1.89,0,0,1,34,0h6.18a1.89,1.89,0,0,1,1.88,1.89,2.17,2.17,0,0,1,0,.26H55.94A1.89,1.89,0,0,1,57.82,4V31.36a1.88,1.88,0,0,1-1.88,1.88H51.51a1.89,1.89,0,1,1,0-3.77h2.54V5.93H21.72v9.75h3.71a1.68,1.68,0,0,1,1.68,1.68v2a1.68,1.68,0,0,1-1.68,1.68H21.72v8.41H39.15a1.89,1.89,0,1,1,0,3.77H19.84A1.88,1.88,0,0,1,18,31.36V21.06H15.07V49.37a1.36,1.36,0,0,1-1.35,1.35H10.63a1.34,1.34,0,0,1-1.32-1.06A1.36,1.36,0,0,1,8,50.72H4.9A1.36,1.36,0,0,1,3.55,49.37ZM22.41,44a4.23,4.23,0,1,1,4.23,4.23A4.23,4.23,0,0,1,22.41,44Zm15.51,0a4.24,4.24,0,1,1,4.24,4.23A4.24,4.24,0,0,1,37.92,44Zm15.52,0a4.23,4.23,0,1,1,4.23,4.23A4.24,4.24,0,0,1,53.44,44ZM43.29,31.36a1.89,1.89,0,0,1,1.89-1.89h.29a1.89,1.89,0,1,1,0,3.77h-.29A1.89,1.89,0,0,1,43.29,31.36ZM5,9.49A4.46,4.46,0,1,1,9.44,14,4.46,4.46,0,0,1,5,9.49Z"/></g></g></svg>